<?xml version="1.0" encoding="UTF-8"?>
<svg width="30px" height="25px" viewBox="0 0 30 25" version="1.1" xmlns="http://www.w3.org/2000/svg" xmlns:xlink="http://www.w3.org/1999/xlink">
    <!-- Generator: Sketch 54.1 (76490) - https://sketchapp.com -->
    <title>5F</title>
    <desc>Created with Sketch.</desc>
    <g id="Feed" stroke="#FFFFFF" stroke-width="1" fill="none" fill-rule="evenodd">
        <g id="Recruiter-Web-Feed-Page" transform="translate(-783.000000, -19.000000)" fill="#FFFFFF">
            <g id="Groups-Tab" transform="translate(760.000000, 7.000000)">
                <path d="M33.4887884,13.9017981 C35.489155,13.9017981 37.1162094,15.588059 37.1162094,17.6610189 C37.1162094,19.7403181 35.489155,21.4265791 33.4887884,21.4265791 C31.4884218,21.4265791 29.8607564,19.7403181 29.8607564,17.6610189 C29.8607564,15.588059 31.4884218,13.9017981 33.4887884,13.9017981 Z M33.4887884,23.3283771 C36.4997251,23.3283771 38.949166,20.7863071 38.949166,17.6610189 C38.949166,14.5420701 36.4997251,12 33.4887884,12 C30.4778518,12 28.0277998,14.5420701 28.0277998,17.6610189 C28.0277998,20.7863071 30.4778518,23.3283771 33.4887884,23.3283771 L33.4887884,23.3283771 Z M44.644162,14.2124251 C46.0866988,14.2124251 47.259791,15.4295758 47.259791,16.925657 C47.259791,18.4217381 46.0866988,19.6388889 44.644162,19.6388889 C43.2022362,19.6388889 42.029144,18.4217381 42.029144,16.925657 C42.029144,15.4295758 43.2022362,14.2124251 44.644162,14.2124251 Z M44.644162,21.540687 C47.0972689,21.540687 49.0927476,19.4740664 49.0927476,16.925657 C49.0927476,14.3835869 47.0972689,12.310627 44.644162,12.310627 C42.1916662,12.310627 40.1961875,14.3835869 40.1961875,16.925657 C40.1961875,19.4740664 42.1916662,21.540687 44.644162,21.540687 L44.644162,21.540687 Z M51.1670434,29.8325265 L43.9769658,29.8325265 L43.9769658,29.7944905 C43.9769658,27.2143845 42.2692613,24.4821346 39.1025234,24.4821346 C39.0579214,24.4821346 39.0078206,24.4821346 38.9607747,24.4821346 C39.2784872,24.1715076 39.6890695,23.9496312 40.1931325,23.9496312 C40.5407833,23.9496312 41.6124519,23.9432918 42.9242378,23.9369525 C44.9875359,23.9242739 47.6459339,23.9115952 49.0078206,23.9115952 C50.7161361,23.9115952 51.1670434,25.5091056 51.1670434,26.3522361 L51.1670434,29.8325265 Z M42.1440093,34.5426464 L24.8329566,34.5426464 L24.8329566,30.1304749 C24.8329566,29.0210927 25.2539256,27.9243891 25.9590029,27.2080452 C26.3194843,26.8403642 26.9310808,26.3839327 27.7607992,26.428308 C28.2202603,26.4156293 29.6744058,26.4219686 31.4352661,26.40929 C34.0661697,26.3966113 37.3856541,26.3839327 39.1025234,26.3839327 C41.1927048,26.3839327 42.1440093,28.1526049 42.1440093,29.7944905 L42.1440093,34.5426464 Z M49.0078206,22.0097971 C47.6441009,22.0097971 44.981426,22.0224758 42.915073,22.0351544 C41.607564,22.0414938 40.5395613,22.0478331 40.2108511,22.0478331 C40.1882446,22.0478331 40.1656382,22.0478331 40.1436427,22.0478331 C38.7053828,22.0478331 37.4235352,22.9860535 36.7526731,24.4821346 C35.0981243,24.488474 33.1203641,24.5011526 31.4261013,24.5074919 C29.6786827,24.5201706 28.2349239,24.5265099 27.7852386,24.5265099 C27.7834056,24.5265099 27.7815727,24.5265099 27.7797397,24.5265099 C26.6341419,24.488474 25.5398668,24.9702628 24.6759333,25.8514292 C23.6262602,26.9164361 23,28.5202858 23,30.1304749 L23,35.4935454 C23,36.0197095 23.4099713,36.4444444 23.9164783,36.4444444 L43.0604876,36.4444444 C43.5669946,36.4444444 43.9769658,36.0197095 43.9769658,35.4935454 L43.9769658,31.7343246 L52.0835217,31.7343246 C52.5900287,31.7343246 53,31.3095897 53,30.7834255 L53,26.3522361 C53,24.2475795 51.6008432,22.0097971 49.0078206,22.0097971 L49.0078206,22.0097971 Z" id="5F"></path>
            </g>
        </g>
    </g>
</svg>