<?xml version="1.0" standalone="no"?>
<!DOCTYPE svg PUBLIC "-//W3C//DTD SVG 20010904//EN"
 "http://www.w3.org/TR/2001/REC-SVG-20010904/DTD/svg10.dtd">
<svg version="1.0" xmlns="http://www.w3.org/2000/svg"
 width="167.000000pt" height="167.000000pt" viewBox="0 0 167.000000 167.000000"
 preserveAspectRatio="xMidYMid meet">
<metadata>
Created by potrace 1.11, written by Peter Selinger 2001-2013
</metadata>
<g transform="translate(0.000000,167.000000) scale(0.100000,-0.100000)"
fill="#000000" stroke="none">
<path d="M758 1213 c6 -2 18 -2 25 0 6 3 1 5 -13 5 -14 0 -19 -2 -12 -5z"/>
<path d="M585 1060 c-82 -82 -147 -150 -145 -150 3 0 73 68 155 150 82 83 147
150 145 150 -3 0 -73 -67 -155 -150z"/>
<path d="M995 1010 c110 -113 202 -204 205 -202 2 1 -88 94 -200 205 l-205
202 200 -205z"/>
<path d="M340 806 c0 -8 4 -17 9 -20 5 -4 7 3 4 14 -6 23 -13 26 -13 6z"/>
<path d="M402 773 l37 -4 4 -147 3 -147 2 153 2 152 -42 -2 -43 -1 37 -4z"/>
<path d="M1108 773 c12 -2 32 -2 45 0 12 2 2 4 -23 4 -25 0 -35 -2 -22 -4z"/>
<path d="M767 733 l82 -4 3 -137 3 -137 108 -1 107 0 -105 3 -105 4 0 139 0
140 -87 -2 -88 -2 82 -3z"/>
<path d="M523 453 c32 -2 81 -2 110 0 29 2 3 3 -58 3 -60 0 -84 -1 -52 -3z"/>
</g>
</svg>
